<svg xmlns="http://www.w3.org/2000/svg" width="1200" height="630" viewBox="0 0 1200 630" role="img" aria-labelledby="title desc">
  <title id="title">みんなの比較表</title>
  <desc id="desc">6カテゴリ・150商品を条件別に比較</desc>
  <rect width="1200" height="630" fill="#f5f9ff"/>
  <rect x="60" y="60" width="1080" height="510" rx="48" fill="#ffffff" stroke="#d9e5f4" stroke-width="3"/>
  <rect x="92" y="92" width="140" height="52" rx="26" fill="#0f6cf9"/>
  <text x="162" y="126" text-anchor="middle" font-family="sans-serif" font-size="24" font-weight="700" fill="#ffffff">6カテゴリ</text>
  <text x="92" y="255" font-family="sans-serif" font-size="72" font-weight="800" fill="#172a45">みんなの比較表</text>
  <text x="92" y="330" font-family="sans-serif" font-size="36" fill="#415774">あなたの重視ポイントで、</text>
  <text x="92" y="380" font-family="sans-serif" font-size="36" font-weight="700" fill="#0f6cf9">ランキングが変わる。</text>
  <g font-family="sans-serif" font-size="22" font-weight="700" fill="#2a4669">
    <rect x="92" y="430" width="130" height="44" rx="22" fill="#eff6ff" stroke="#d2e3f9"/><text x="157" y="459" text-anchor="middle">イヤホン</text>
    <rect x="234" y="430" width="224" height="44" rx="22" fill="#eff6ff" stroke="#d2e3f9"/><text x="346" y="459" text-anchor="middle">モバイルバッテリー</text>
    <rect x="470" y="430" width="100" height="44" rx="22" fill="#eff6ff" stroke="#d2e3f9"/><text x="520" y="459" text-anchor="middle">スマホ</text>
    <rect x="582" y="430" width="190" height="44" rx="22" fill="#eff6ff" stroke="#d2e3f9"/><text x="677" y="459" text-anchor="middle">スマートウォッチ</text>
    <rect x="784" y="430" width="120" height="44" rx="22" fill="#eff6ff" stroke="#d2e3f9"/><text x="844" y="459" text-anchor="middle">タブレット</text>
    <rect x="916" y="430" width="160" height="44" rx="22" fill="#eff6ff" stroke="#d2e3f9"/><text x="996" y="459" text-anchor="middle">USB充電器</text>
  </g>
  <text x="92" y="535" font-family="sans-serif" font-size="22" fill="#708198">6カテゴリ・150商品を条件別に比較</text>
</svg>
